<?xml version="1.0" encoding="UTF-8"?>
<svg class="normal-button" id="Layer_1" data-name="Layer 1"
  xmlns="http://www.w3.org/2000/svg" viewBox="-3 -3 137.29 42.06" preserveAspectRatio="none">
  <path class="fill" d="m130.29,18.03c0,2.41-.45,4.69-2.05,6.74-1.19,1.53-3.01,2.94-5.75,4.2-1.83.84-4.07,1.6-6.8,2.29-2.06.52-4.39.99-7.04,1.41-2.16.34-4.53.65-7.12.93-2.22.23-4.6.44-7.16.62-2.25.16-4.64.3-7.17.41-2.27.1-4.67.19-7.18.26-2.29.06-4.68.11-7.19.14-2.31.03-4.7.04-7.19.04s-4.88-.01-7.19-.04c-2.5-.03-4.89-.08-7.19-.14-2.52-.07-4.91-.15-7.19-.26-2.54-.12-4.93-.25-7.18-.41-2.56-.18-4.94-.39-7.16-.62-2.6-.27-4.97-.58-7.12-.93-2.65-.42-4.99-.89-7.04-1.41-2.73-.69-4.97-1.45-6.8-2.29-2.74-1.25-4.56-2.66-5.74-4.2-1.59-2.05-2.04-4.33-2.04-6.74s.45-4.69,2.05-6.74c1.19-1.53,3.01-2.94,5.75-4.2,1.83-.84,4.07-1.6,6.8-2.29,2.06-.52,4.39-.99,7.04-1.41,2.16-.34,4.53-.65,7.12-.93,2.22-.23,4.6-.44,7.16-.62,2.25-.16,4.64-.3,7.17-.41,2.27-.1,4.67-.19,7.18-.26,2.29-.06,4.68-.11,7.19-.14,2.31-.03,4.7-.04,7.19-.04s4.88.01,7.19.04c2.5.03,4.89.08,7.19.14,2.52.07,4.91.15,7.19.26,2.54.12,4.93.25,7.18.41,2.56.18,4.94.39,7.16.62,2.6.27,4.97.58,7.12.93,2.65.42,4.99.89,7.04,1.41,2.73.69,4.97,1.45,6.8,2.29,2.74,1.25,4.56,2.66,5.74,4.2,1.59,2.05,2.04,4.33,2.04,6.74Z"/>
  <path stroke-linecap="round" vector-effect="non-scaling-stroke" class="stroke" d="m130.29,18.03c0,2.41-.45,4.69-2.05,6.74-1.19,1.53-3.01,2.94-5.75,4.2-1.83.84-4.07,1.6-6.8,2.29-2.06.52-4.39.99-7.04,1.41-2.16.34-4.53.65-7.12.93-2.22.23-4.6.44-7.16.62-2.25.16-4.64.3-7.17.41-2.27.1-4.67.19-7.18.26-2.29.06-4.68.11-7.19.14-2.31.03-4.7.04-7.19.04s-4.88-.01-7.19-.04c-2.5-.03-4.89-.08-7.19-.14-2.52-.07-4.91-.15-7.19-.26-2.54-.12-4.93-.25-7.18-.41-2.56-.18-4.94-.39-7.16-.62-2.6-.27-4.97-.58-7.12-.93-2.65-.42-4.99-.89-7.04-1.41-2.73-.69-4.97-1.45-6.8-2.29-2.74-1.25-4.56-2.66-5.74-4.2-1.59-2.05-2.04-4.33-2.04-6.74s.45-4.69,2.05-6.74c1.19-1.53,3.01-2.94,5.75-4.2,1.83-.84,4.07-1.6,6.8-2.29,2.06-.52,4.39-.99,7.04-1.41,2.16-.34,4.53-.65,7.12-.93,2.22-.23,4.6-.44,7.16-.62,2.25-.16,4.64-.3,7.17-.41,2.27-.1,4.67-.19,7.18-.26,2.29-.06,4.68-.11,7.19-.14,2.31-.03,4.7-.04,7.19-.04s4.88.01,7.19.04c2.5.03,4.89.08,7.19.14,2.52.07,4.91.15,7.19.26,2.54.12,4.93.25,7.18.41,2.56.18,4.94.39,7.16.62,2.6.27,4.97.58,7.12.93,2.65.42,4.99.89,7.04,1.41,2.73.69,4.97,1.45,6.8,2.29,2.74,1.25,4.56,2.66,5.74,4.2,1.59,2.05,2.04,4.33,2.04,6.74Z"/>
</svg>