<?xml version="1.0" encoding="UTF-8"?>
<svg class="background-glow" id="Layer_1" data-name="Layer 1"
    xmlns="http://www.w3.org/2000/svg" viewBox="0 0 383.76 46.12" preserveAspectRatio="none">

    <path d="m17.22,46.12h7.13s7.13,0,7.13,0h7.13s7.13,0,7.13,0h7.13s7.13,0,7.13,0h7.13s7.13,0,7.13,0h7.13s7.13,0,7.13,0h7.13s7.13,0,7.13,0h7.13s7.13,0,7.13,0h7.13s7.13,0,7.13,0h7.13s7.13,0,7.13,0h7.13s7.13,0,7.13,0h7.12s7.12,0,7.12,0h7.13s7.13,0,7.13,0h7.12s7.13,0,7.13,0h7.13s7.13,0,7.13,0h7.13s7.13,0,7.13,0h7.13s7.13,0,7.13,0h7.13s7.13,0,7.13,0h7.13s7.13,0,7.13,0h7.13s7.13,0,7.13,0h7.13s7.13,0,7.13,0h7.13s7.13,0,7.13,0h7.13s7.13,0,7.13,0h7.13s7.13,0,7.13,0h7.14s7.14,0,7.14,0h7.14c2.45,0,4.58-.36,6.43-1.04,2.18-.79,3.96-2.01,5.42-3.57s2.54-3.43,3.37-5.57c.74-1.93,1.26-4.06,1.58-6.34.29-2.07.42-4.26.42-6.53h0c0-2.27-.13-4.46-.42-6.53-.32-2.28-.84-4.42-1.58-6.34-.83-2.14-1.93-4.02-3.37-5.57s-3.24-2.78-5.41-3.57C371.12.36,368.98,0,366.53,0h-7.13s-7.13,0-7.13,0h-7.13s-7.13,0-7.13,0h-7.13s-7.13,0-7.13,0h-7.13s-7.13,0-7.13,0h-7.13s-7.13,0-7.13,0h-7.13s-7.13,0-7.13,0h-7.13s-7.13,0-7.13,0h-7.13s-7.13,0-7.13,0h-7.13s-7.13,0-7.13,0h-7.13s-7.13,0-7.13,0h-7.12s-7.12,0-7.12,0h-7.13s-7.13,0-7.13,0h-7.12s-7.13,0-7.13,0h-7.13s-7.13,0-7.13,0h-7.13s-7.13,0-7.13,0h-7.13s-7.13,0-7.13,0h-7.13s-7.13,0-7.13,0h-7.13s-7.13,0-7.13,0h-7.13s-7.13,0-7.13,0h-7.13s-7.13,0-7.13,0h-7.13s-7.13,0-7.13,0h-7.13s-7.13,0-7.13,0h-7.13s-7.13,0-7.13,0h-7.14s-7.14,0-7.14,0h-7.14c-2.45,0-4.58.36-6.43,1.04-2.18.79-3.96,2.01-5.42,3.57s-2.54,3.43-3.37,5.57c-.74,1.93-1.26,4.06-1.58,6.34C.13,18.6,0,20.79,0,23.06h0c0,2.27.13,4.46.42,6.53.32,2.28.84,4.42,1.58,6.34.83,2.14,1.93,4.02,3.37,5.57s3.24,2.78,5.41,3.57c1.85.67,3.99,1.04,6.44,1.04Z"/>
</svg>