<?xml version="1.0" encoding="UTF-8"?>
<svg id="Layer_1" data-name="Layer 1" xmlns="http://www.w3.org/2000/svg" viewBox="-3 -3 90 39" preserveAspectRatio="none">
  <defs>
    <style>
      .cls-1 {
        fill: none;
        stroke: #F1CAAC;
        stroke-linejoin: round;
        stroke-width: 2.5px;
      }

      .cls-2 {
        fill: #F7F6CB;
        stroke-width: 0px;
      }
    </style>
  </defs>
  <path class="cls-2" d="m83,16.5c0,2.25-.65,4.39-2.18,6.32-1.21,1.52-2.96,2.91-5.37,4.12-1.76.89-3.87,1.68-6.38,2.36-1.97.53-4.19,1-6.67,1.39-2.07.32-4.32.59-6.77.8-2.12.18-4.38.32-6.8.4-2.15.08-4.42.12-6.82.12s-4.67-.04-6.82-.12c-2.42-.09-4.69-.22-6.81-.4-2.45-.21-4.7-.48-6.77-.8-2.48-.39-4.7-.85-6.67-1.39-2.51-.68-4.62-1.47-6.38-2.36-2.41-1.21-4.16-2.6-5.36-4.12-1.53-1.93-2.18-4.07-2.18-6.32s.65-4.39,2.18-6.32c1.21-1.52,2.96-2.91,5.37-4.12,1.76-.89,3.87-1.68,6.38-2.36,1.97-.53,4.19-1,6.67-1.39,2.07-.32,4.32-.59,6.77-.8,2.12-.18,4.38-.32,6.8-.4,2.15-.08,4.42-.12,6.82-.12s4.67.04,6.82.12c2.42.09,4.69.22,6.81.4,2.45.21,4.7.48,6.77.8,2.48.39,4.7.85,6.67,1.39,2.51.68,4.62,1.47,6.38,2.36,2.41,1.21,4.16,2.6,5.36,4.12,1.53,1.93,2.18,4.07,2.18,6.32Z"/>
  <path vector-effect="non-scaling-stroke" class="cls-1" d="m83,16.5c0,2.25-.65,4.39-2.18,6.32-1.21,1.52-2.96,2.91-5.37,4.12-1.76.89-3.87,1.68-6.38,2.36-1.97.53-4.19,1-6.67,1.39-2.07.32-4.32.59-6.77.8-2.12.18-4.38.32-6.8.4-2.15.08-4.42.12-6.82.12s-4.67-.04-6.82-.12c-2.42-.09-4.69-.22-6.81-.4-2.45-.21-4.7-.48-6.77-.8-2.48-.39-4.7-.85-6.67-1.39-2.51-.68-4.62-1.47-6.38-2.36-2.41-1.21-4.16-2.6-5.36-4.12-1.53-1.93-2.18-4.07-2.18-6.32s.65-4.39,2.18-6.32c1.21-1.52,2.96-2.91,5.37-4.12,1.76-.89,3.87-1.68,6.38-2.36,1.97-.53,4.19-1,6.67-1.39,2.07-.32,4.32-.59,6.77-.8,2.12-.18,4.38-.32,6.8-.4,2.15-.08,4.42-.12,6.82-.12s4.67.04,6.82.12c2.42.09,4.69.22,6.81.4,2.45.21,4.7.48,6.77.8,2.48.39,4.7.85,6.67,1.39,2.51.68,4.62,1.47,6.38,2.36,2.41,1.21,4.16,2.6,5.36,4.12,1.53,1.93,2.18,4.07,2.18,6.32Z"/>
</svg>