<?xml version="1.0" encoding="UTF-8"?>
<svg id="Layer_1" data-name="Layer 1" xmlns="http://www.w3.org/2000/svg" viewBox="0 0 181.47 35.97" preserveAspectRatio="none">
  <defs>
    <style>
      .cls-1 {
        fill: #f0f0eb;
      }

      .cls-2 {
        fill: #dddddb;
      }
    </style>
  </defs>
  <path class="cls-1" d="m181.47,18.94c0,2.37-.61,4.61-2.74,6.64-1.39,1.33-3.43,2.56-6.37,3.68-1.95.74-4.29,1.44-7.1,2.08-2.14.49-4.56.94-7.28,1.36-2.23.34-4.67.66-7.34.96-2.29.25-4.74.49-7.37.7-2.32.19-4.78.36-7.39.52-2.35.14-4.81.27-7.39.39-2.36.11-4.83.2-7.4.28-2.37.08-4.84.14-7.4.2-2.39.05-4.85.1-7.41.13-2.39.03-4.86.06-7.41.07-2.4.01-4.87.02-7.41.02s-5.01,0-7.41-.02c-2.55-.02-5.01-.04-7.41-.07-2.55-.03-5.02-.08-7.4-.13-2.56-.06-5.03-.12-7.4-.2-2.57-.08-5.04-.18-7.4-.28-2.59-.12-5.05-.24-7.4-.39-2.61-.16-5.07-.33-7.39-.52-2.63-.21-5.08-.45-7.37-.7-2.67-.29-5.11-.62-7.34-.96-2.72-.42-5.13-.87-7.28-1.36-2.81-.64-5.16-1.33-7.1-2.08-2.94-1.12-4.97-2.36-6.36-3.68-2.12-2.03-2.73-4.26-2.73-6.63s.61-4.61,2.74-6.64c1.39-1.33,3.43-2.56,6.37-3.68,1.95-.74,4.29-1.44,7.1-2.08,2.14-.49,4.56-.94,7.28-1.36,2.23-.34,4.67-.66,7.34-.96,2.29-.25,4.74-.49,7.37-.7,2.32-.19,4.78-.36,7.39-.52,2.35-.14,4.81-.27,7.39-.39,2.36-.11,4.83-.2,7.4-.28,2.37-.08,4.84-.14,7.4-.2,2.39-.05,4.85-.1,7.41-.13,2.39-.03,4.86-.06,7.41-.07,2.4-.01,4.87-.02,7.41-.02s5.01,0,7.41.02c2.55.02,5.01.04,7.41.07,2.55.03,5.02.08,7.4.13,2.56.06,5.03.12,7.4.2,2.57.08,5.04.18,7.4.28,2.59.12,5.05.24,7.4.39,2.61.16,5.07.33,7.39.52,2.63.21,5.08.45,7.37.7,2.67.29,5.11.62,7.34.96,2.72.42,5.13.87,7.28,1.36,2.81.64,5.16,1.33,7.1,2.08,2.94,1.12,4.97,2.36,6.36,3.68,2.12,2.03,2.73,4.26,2.73,6.63Z"/>
  <path class="cls-2" d="m180,17.03c0,2.37-.61,4.61-2.74,6.64-1.39,1.33-3.43,2.56-6.37,3.68-1.95.74-4.29,1.44-7.1,2.08-2.14.49-4.56.94-7.28,1.36-2.23.34-4.67.66-7.34.96-2.29.25-4.74.49-7.37.7-2.32.19-4.78.36-7.39.52-2.35.14-4.81.27-7.39.39-2.36.11-4.83.2-7.4.28-2.37.08-4.84.14-7.4.2-2.39.05-4.85.1-7.41.13-2.39.03-4.86.06-7.41.07-2.4.01-4.87.02-7.41.02s-5.01,0-7.41-.02c-2.55-.02-5.01-.04-7.41-.07-2.55-.03-5.02-.08-7.4-.13-2.56-.06-5.03-.12-7.4-.2-2.57-.08-5.04-.18-7.4-.28-2.59-.12-5.05-.24-7.4-.39-2.61-.16-5.07-.33-7.39-.52-2.63-.21-5.08-.45-7.37-.7-2.67-.29-5.11-.62-7.34-.96-2.72-.42-5.13-.87-7.28-1.36-2.81-.64-5.16-1.33-7.1-2.08-2.94-1.12-4.97-2.36-6.36-3.68-2.12-2.03-2.73-4.26-2.73-6.63s.61-4.61,2.74-6.64c1.39-1.33,3.43-2.56,6.37-3.68,1.95-.74,4.29-1.44,7.1-2.08,2.14-.49,4.56-.94,7.28-1.36,2.23-.34,4.67-.66,7.34-.96,2.29-.25,4.74-.49,7.37-.7,2.32-.19,4.78-.36,7.39-.52,2.35-.14,4.81-.27,7.39-.39,2.36-.11,4.83-.2,7.4-.28,2.37-.08,4.84-.14,7.4-.2,2.39-.05,4.85-.1,7.41-.13,2.39-.03,4.86-.06,7.41-.07,2.4-.01,4.87-.02,7.41-.02s5.01,0,7.41.02c2.55.02,5.01.04,7.41.07,2.55.03,5.02.08,7.4.13,2.56.06,5.03.12,7.4.2,2.57.08,5.04.18,7.4.28,2.59.12,5.05.24,7.4.39,2.61.16,5.07.33,7.39.52,2.63.21,5.08.45,7.37.7,2.67.29,5.11.62,7.34.96,2.72.42,5.13.87,7.28,1.36,2.81.64,5.16,1.33,7.1,2.08,2.94,1.12,4.97,2.36,6.36,3.68,2.12,2.03,2.73,4.26,2.73,6.63Z"/>
</svg>